<svg viewBox="0 0 1667 1667" xmlns="http://www.w3.org/2000/svg" xml:space="preserve" style="fill-rule:evenodd;clip-rule:evenodd;stroke-linejoin:round;stroke-miterlimit:2"><path d="M1101.7 1622.27a822.804 822.804 0 0 1-26.457 8.502 821.416 821.416 0 0 1-39.432 10.915 802.822 802.822 0 0 1-39.909 8.963 814.96 814.96 0 0 1-40.299 6.988c-13.477 2.018-27.018 3.667-40.582 5.013a828.173 828.173 0 0 1-81.684 4.015l-40.885-.999a827.343 827.343 0 0 1-40.799-3.016c-13.563-1.346-27.105-2.995-40.581-5.013a814.796 814.796 0 0 1-40.3-6.988 803.076 803.076 0 0 1-39.909-8.963 846.37 846.37 0 0 1-39.431-10.894 846.42 846.42 0 0 1-38.846-12.847c-12.825-4.579-25.542-9.505-38.151-14.713a834.584 834.584 0 0 1-37.391-16.58 859.16 859.16 0 0 1-36.545-18.381 831.83 831.83 0 0 1-35.59-20.161 818.769 818.769 0 0 1-34.549-21.897 826.912 826.912 0 0 1-33.442-23.546 817.693 817.693 0 0 1-23.41-18.009L673.311 763.15l428.389 859.12Zm-990.913-373.76a826.983 826.983 0 0 1-12.389-22.339 857.98 857.98 0 0 1-18.381-36.545 832.345 832.345 0 0 1-16.58-37.392c-5.208-12.608-10.134-25.325-14.713-38.151a847.613 847.613 0 0 1-12.848-38.845 822.366 822.366 0 0 1-10.894-39.432 802.814 802.814 0 0 1-8.962-39.909 812.62 812.62 0 0 1-6.988-40.299c-2.018-13.477-3.668-27.018-5.013-40.582a827.396 827.396 0 0 1-4.015-81.684 827.346 827.346 0 0 1 4.015-81.684c1.345-13.563 2.995-27.105 5.013-40.581a812.458 812.458 0 0 1 6.988-40.3 803.068 803.068 0 0 1 8.962-39.909 822.65 822.65 0 0 1 10.894-39.431 847.653 847.653 0 0 1 12.848-38.846c4.579-12.825 9.505-25.542 14.713-38.151a832.308 832.308 0 0 1 16.58-37.391 857.98 857.98 0 0 1 18.381-36.545 831.83 831.83 0 0 1 20.161-35.59 818.747 818.747 0 0 1 21.896-34.549 827.915 827.915 0 0 1 23.546-33.442 840.503 840.503 0 0 1 25.152-32.248 861.96 861.96 0 0 1 26.715-30.968 844.515 844.515 0 0 1 28.212-29.622 844.515 844.515 0 0 1 29.622-28.212 861.96 861.96 0 0 1 30.968-26.715 840.503 840.503 0 0 1 32.248-25.152 827.915 827.915 0 0 1 33.442-23.546 818.747 818.747 0 0 1 34.549-21.896 831.83 831.83 0 0 1 35.59-20.161 859.16 859.16 0 0 1 36.545-18.381 832.308 832.308 0 0 1 37.391-16.58c12.609-5.208 25.326-10.134 38.151-14.713a847.653 847.653 0 0 1 38.846-12.848 822.327 822.327 0 0 1 39.431-10.894 803.068 803.068 0 0 1 39.909-8.962 812.458 812.458 0 0 1 40.3-6.988c13.476-2.018 27.018-3.668 40.581-5.013a827.346 827.346 0 0 1 81.684-4.015l40.886.998a827.396 827.396 0 0 1 40.798 3.017c13.564 1.345 27.105 2.995 40.582 5.013a812.62 812.62 0 0 1 40.299 6.988 802.814 802.814 0 0 1 39.909 8.962 822.366 822.366 0 0 1 39.432 10.894 847.613 847.613 0 0 1 38.845 12.848c12.826 4.579 25.543 9.505 38.151 14.713a832.345 832.345 0 0 1 37.392 16.58 859.16 859.16 0 0 1 36.545 18.381 846.131 846.131 0 0 1 35.59 20.161 809.366 809.366 0 0 1 10.572 6.445h-142.212V850.65l289.907 574.489a845.88 845.88 0 0 1-27.06 25.663 860.924 860.924 0 0 1-30.968 26.714 868.357 868.357 0 0 1-9.533 7.697L673.311 125.003l-562.524 1123.51Zm1335.88-979.346a815.883 815.883 0 0 1 4.145 4.533 860.924 860.924 0 0 1 26.714 30.968 838.51 838.51 0 0 1 25.152 32.248 827.915 827.915 0 0 1 23.546 33.442 818.769 818.769 0 0 1 21.897 34.549 831.83 831.83 0 0 1 20.161 35.59 859.16 859.16 0 0 1 18.381 36.545 834.584 834.584 0 0 1 16.58 37.391c5.208 12.609 10.134 25.326 14.713 38.151a821.308 821.308 0 0 1 12.826 38.846 821.7 821.7 0 0 1 10.915 39.431 803.076 803.076 0 0 1 8.963 39.909 814.796 814.796 0 0 1 6.988 40.3c2.018 13.476 3.667 27.018 5.013 40.581a828.163 828.163 0 0 1 4.015 81.684 828.173 828.173 0 0 1-4.015 81.684c-1.346 13.564-2.995 27.105-5.013 40.582a814.96 814.96 0 0 1-6.988 40.299 802.822 802.822 0 0 1-8.963 39.909 846.41 846.41 0 0 1-10.894 39.432 846.38 846.38 0 0 1-12.847 38.845c-4.579 12.826-9.505 25.543-14.713 38.151a834.622 834.622 0 0 1-16.58 37.392 859.16 859.16 0 0 1-18.381 36.545 846.131 846.131 0 0 1-20.161 35.59 819.413 819.413 0 0 1-21.897 34.549 828.623 828.623 0 0 1-23.546 33.442 838.51 838.51 0 0 1-25.152 32.248 860.924 860.924 0 0 1-26.714 30.968 892.342 892.342 0 0 1-4.145 4.525V269.163Z" style="fill:url(#a)"/><defs><linearGradient id="a" x1="0" y1="0" x2="1" y2="0" gradientUnits="userSpaceOnUse" gradientTransform="rotate(44.718 -.01 .004) scale(2356.99)"><stop offset="0" style="stop-color:#5bc0de;stop-opacity:1"/><stop offset=".01" style="stop-color:#5bbede;stop-opacity:1"/><stop offset=".01" style="stop-color:#5bbede;stop-opacity:1"/><stop offset=".04" style="stop-color:#5dbadd;stop-opacity:1"/><stop offset=".04" style="stop-color:#5ebadd;stop-opacity:1"/><stop offset=".05" style="stop-color:#5eb8dd;stop-opacity:1"/><stop offset=".06" style="stop-color:#5fb7dd;stop-opacity:1"/><stop offset=".07" style="stop-color:#5fb6dd;stop-opacity:1"/><stop offset=".07" style="stop-color:#60b5dd;stop-opacity:1"/><stop offset=".08" style="stop-color:#60b5dd;stop-opacity:1"/><stop offset=".08" style="stop-color:#61b4dd;stop-opacity:1"/><stop offset=".09" style="stop-color:#61b2dd;stop-opacity:1"/><stop offset=".1" style="stop-color:#62b2dd;stop-opacity:1"/><stop offset=".11" style="stop-color:#63b0dd;stop-opacity:1"/><stop offset=".12" style="stop-color:#63afdd;stop-opacity:1"/><stop offset=".12" style="stop-color:#64afdd;stop-opacity:1"/><stop offset=".14" style="stop-color:#65acdd;stop-opacity:1"/><stop offset=".14" style="stop-color:#65acdc;stop-opacity:1"/><stop offset=".14" style="stop-color:#65abdc;stop-opacity:1"/><stop offset=".15" style="stop-color:#66abdc;stop-opacity:1"/><stop offset=".16" style="stop-color:#66a9dc;stop-opacity:1"/><stop offset=".16" style="stop-color:#67a9dc;stop-opacity:1"/><stop offset=".17" style="stop-color:#67a8dc;stop-opacity:1"/><stop offset=".17" style="stop-color:#67a8dc;stop-opacity:1"/><stop offset=".18" style="stop-color:#68a6dc;stop-opacity:1"/><stop offset=".19" style="stop-color:#68a5dc;stop-opacity:1"/><stop offset=".19" style="stop-color:#69a5dc;stop-opacity:1"/><stop offset=".2" style="stop-color:#69a4dc;stop-opacity:1"/><stop offset=".2" style="stop-color:#69a4dc;stop-opacity:1"/><stop offset=".2" style="stop-color:#6aa3dc;stop-opacity:1"/><stop offset=".21" style="stop-color:#6aa3dc;stop-opacity:1"/><stop offset=".21" style="stop-color:#6aa2dc;stop-opacity:1"/><stop offset=".21" style="stop-color:#6aa2dc;stop-opacity:1"/><stop offset=".22" style="stop-color:#6ba0dc;stop-opacity:1"/><stop offset=".23" style="stop-color:#6ba0dc;stop-opacity:1"/><stop offset=".23" style="stop-color:#6c9fdc;stop-opacity:1"/><stop offset=".25" style="stop-color:#6d9ddc;stop-opacity:1"/><stop offset=".25" style="stop-color:#6d9cdc;stop-opacity:1"/><stop offset=".26" style="stop-color:#6e9cdc;stop-opacity:1"/><stop offset=".26" style="stop-color:#6e9bdb;stop-opacity:1"/><stop offset=".27" style="stop-color:#6e9adb;stop-opacity:1"/><stop offset=".27" style="stop-color:#6e9adb;stop-opacity:1"/><stop offset=".28" style="stop-color:#6f98db;stop-opacity:1"/><stop offset=".3" style="stop-color:#7196db;stop-opacity:1"/><stop offset=".3" style="stop-color:#7196db;stop-opacity:1"/><stop offset=".3" style="stop-color:#7195db;stop-opacity:1"/><stop offset=".31" style="stop-color:#7195db;stop-opacity:1"/><stop offset=".32" style="stop-color:#7293db;stop-opacity:1"/><stop offset=".32" style="stop-color:#7293db;stop-opacity:1"/><stop offset=".32" style="stop-color:#7392db;stop-opacity:1"/><stop offset=".34" style="stop-color:#7490db;stop-opacity:1"/><stop offset=".35" style="stop-color:#748fdb;stop-opacity:1"/><stop offset=".35" style="stop-color:#758fdb;stop-opacity:1"/><stop offset=".36" style="stop-color:#758ddb;stop-opacity:1"/><stop offset=".36" style="stop-color:#758ddb;stop-opacity:1"/><stop offset=".38" style="stop-color:#768bdb;stop-opacity:1"/><stop offset=".38" style="stop-color:#778bdb;stop-opacity:1"/><stop offset=".38" style="stop-color:#778adb;stop-opacity:1"/><stop offset=".39" style="stop-color:#778ada;stop-opacity:1"/><stop offset=".39" style="stop-color:#7789da;stop-opacity:1"/><stop offset=".39" style="stop-color:#7889da;stop-opacity:1"/><stop offset=".4" style="stop-color:#7887da;stop-opacity:1"/><stop offset=".42" style="stop-color:#7985da;stop-opacity:1"/><stop offset=".43" style="stop-color:#7b83da;stop-opacity:1"/><stop offset=".44" style="stop-color:#7b82da;stop-opacity:1"/><stop offset=".45" style="stop-color:#7c80da;stop-opacity:1"/><stop offset=".46" style="stop-color:#7c80da;stop-opacity:1"/><stop offset=".47" style="stop-color:#7d7eda;stop-opacity:1"/><stop offset=".5" style="stop-color:#7f7ada;stop-opacity:1"/><stop offset=".51" style="stop-color:#8078d9;stop-opacity:1"/><stop offset=".53" style="stop-color:#8275d9;stop-opacity:1"/><stop offset=".54" style="stop-color:#8275d9;stop-opacity:1"/><stop offset=".54" style="stop-color:#8274d9;stop-opacity:1"/><stop offset=".55" style="stop-color:#8373d9;stop-opacity:1"/><stop offset=".55" style="stop-color:#8373d9;stop-opacity:1"/><stop offset=".56" style="stop-color:#8471d9;stop-opacity:1"/><stop offset=".57" style="stop-color:#8471d9;stop-opacity:1"/><stop offset=".57" style="stop-color:#8570d9;stop-opacity:1"/><stop offset=".57" style="stop-color:#856fd9;stop-opacity:1"/><stop offset=".58" style="stop-color:#856fd9;stop-opacity:1"/><stop offset=".59" style="stop-color:#866dd9;stop-opacity:1"/><stop offset=".6" style="stop-color:#876cd9;stop-opacity:1"/><stop offset=".6" style="stop-color:#876cd9;stop-opacity:1"/><stop offset=".61" style="stop-color:#876bd9;stop-opacity:1"/><stop offset=".63" style="stop-color:#8968d9;stop-opacity:1"/><stop offset=".63" style="stop-color:#8967d9;stop-opacity:1"/><stop offset=".64" style="stop-color:#8a67d8;stop-opacity:1"/><stop offset=".64" style="stop-color:#8a66d8;stop-opacity:1"/><stop offset=".64" style="stop-color:#8a66d8;stop-opacity:1"/><stop offset=".66" style="stop-color:#8b64d8;stop-opacity:1"/><stop offset=".66" style="stop-color:#8b64d8;stop-opacity:1"/><stop offset=".67" style="stop-color:#8c62d8;stop-opacity:1"/><stop offset=".67" style="stop-color:#8c62d8;stop-opacity:1"/><stop offset=".68" style="stop-color:#8d61d8;stop-opacity:1"/><stop offset=".68" style="stop-color:#8d61d8;stop-opacity:1"/><stop offset=".68" style="stop-color:#8d60d8;stop-opacity:1"/><stop offset=".69" style="stop-color:#8d60d8;stop-opacity:1"/><stop offset=".69" style="stop-color:#8e5fd8;stop-opacity:1"/><stop offset=".7" style="stop-color:#8e5fd8;stop-opacity:1"/><stop offset=".7" style="stop-color:#8e5ed8;stop-opacity:1"/><stop offset=".72" style="stop-color:#905bd8;stop-opacity:1"/><stop offset=".73" style="stop-color:#905ad8;stop-opacity:1"/><stop offset=".73" style="stop-color:#915ad8;stop-opacity:1"/><stop offset=".73" style="stop-color:#9159d8;stop-opacity:1"/><stop offset=".74" style="stop-color:#9159d8;stop-opacity:1"/><stop offset=".75" style="stop-color:#9256d8;stop-opacity:1"/><stop offset=".76" style="stop-color:#9356d7;stop-opacity:1"/><stop offset=".76" style="stop-color:#9355d7;stop-opacity:1"/><stop offset=".77" style="stop-color:#9355d7;stop-opacity:1"/><stop offset=".77" style="stop-color:#9454d7;stop-opacity:1"/><stop offset=".77" style="stop-color:#9454d7;stop-opacity:1"/><stop offset=".78" style="stop-color:#9453d7;stop-opacity:1"/><stop offset=".78" style="stop-color:#9453d7;stop-opacity:1"/><stop offset=".79" style="stop-color:#9552d7;stop-opacity:1"/><stop offset=".79" style="stop-color:#9552d7;stop-opacity:1"/><stop offset=".8" style="stop-color:#9650d7;stop-opacity:1"/><stop offset=".81" style="stop-color:#974ed7;stop-opacity:1"/><stop offset=".82" style="stop-color:#974dd7;stop-opacity:1"/><stop offset=".82" style="stop-color:#984dd7;stop-opacity:1"/><stop offset=".83" style="stop-color:#984cd7;stop-opacity:1"/><stop offset=".83" style="stop-color:#984cd7;stop-opacity:1"/><stop offset=".84" style="stop-color:#994ad7;stop-opacity:1"/><stop offset=".85" style="stop-color:#9949d7;stop-opacity:1"/><stop offset=".85" style="stop-color:#9a49d7;stop-opacity:1"/><stop offset=".86" style="stop-color:#9a47d7;stop-opacity:1"/><stop offset=".87" style="stop-color:#9b47d7;stop-opacity:1"/><stop offset=".87" style="stop-color:#9b46d7;stop-opacity:1"/><stop offset=".88" style="stop-color:#9b46d7;stop-opacity:1"/><stop offset=".88" style="stop-color:#9c45d7;stop-opacity:1"/><stop offset=".88" style="stop-color:#9c44d6;stop-opacity:1"/><stop offset=".89" style="stop-color:#9c44d6;stop-opacity:1"/><stop offset=".89" style="stop-color:#9d43d6;stop-opacity:1"/><stop offset=".89" style="stop-color:#9d43d6;stop-opacity:1"/><stop offset=".9" style="stop-color:#9d42d6;stop-opacity:1"/><stop offset=".9" style="stop-color:#9d42d6;stop-opacity:1"/><stop offset=".91" style="stop-color:#9e41d6;stop-opacity:1"/><stop offset=".91" style="stop-color:#9e41d6;stop-opacity:1"/><stop offset=".91" style="stop-color:#9e40d6;stop-opacity:1"/><stop offset=".92" style="stop-color:#9f3fd6;stop-opacity:1"/><stop offset=".93" style="stop-color:#9f3fd6;stop-opacity:1"/><stop offset=".93" style="stop-color:#a03dd6;stop-opacity:1"/><stop offset=".94" style="stop-color:#a03cd6;stop-opacity:1"/><stop offset=".95" style="stop-color:#a13cd6;stop-opacity:1"/><stop offset=".96" style="stop-color:#a13ad6;stop-opacity:1"/><stop offset=".96" style="stop-color:#a23ad6;stop-opacity:1"/><stop offset=".96" style="stop-color:#a239d6;stop-opacity:1"/><stop offset=".97" style="stop-color:#a239d6;stop-opacity:1"/><stop offset=".98" style="stop-color:#a336d6;stop-opacity:1"/><stop offset=".99" style="stop-color:#a436d6;stop-opacity:1"/><stop offset=".99" style="stop-color:#a435d6;stop-opacity:1"/><stop offset="1" style="stop-color:#a435d6;stop-opacity:1"/><stop offset="1" style="stop-color:#a534d6;stop-opacity:1"/></linearGradient></defs></svg>